<svg xmlns="http://www.w3.org/2000/svg" viewBox="0 0 224.51 29.43"><defs><style>.cls-1{fill:#3d3d3d;}.cls-2{fill:#073763;}.cls-3{fill:#2396cd;}</style></defs><g id="Layer_2" data-name="Layer 2"><g id="Layer_1-2" data-name="Layer 1"><path class="cls-1" d="M0,24.15H1v4.39H3.69v.82H0Z"/><path class="cls-1" d="M5,29.15a1.88,1.88,0,0,1-.76-.72A2.09,2.09,0,0,1,4,27.37a2.05,2.05,0,0,1,.27-1.05A2,2,0,0,1,5,25.6a2.27,2.27,0,0,1,1.08-.26,2.32,2.32,0,0,1,1.1.26,2,2,0,0,1,.75.72,2.05,2.05,0,0,1,.27,1.05A2.09,2.09,0,0,1,8,28.43a1.86,1.86,0,0,1-.75.72,2.21,2.21,0,0,1-1.1.26A2.16,2.16,0,0,1,5,29.15ZM7,28.27a1.2,1.2,0,0,0,.34-.9,1.21,1.21,0,0,0-.34-.9,1.22,1.22,0,0,0-1.69,0,1.25,1.25,0,0,0-.33.9,1.23,1.23,0,0,0,.33.9,1.12,1.12,0,0,0,.84.35A1.12,1.12,0,0,0,7,28.27Z"/><path class="cls-1" d="M13,25.39v4h-.88v-.51a1.56,1.56,0,0,1-.56.42,1.89,1.89,0,0,1-.72.14A1.77,1.77,0,0,1,9.55,29a1.76,1.76,0,0,1-.45-1.31V25.39H10v2.14a1.16,1.16,0,0,0,.24.8.9.9,0,0,0,.69.26,1,1,0,0,0,.79-.31A1.24,1.24,0,0,0,12,27.4v-2Z"/><path class="cls-1" d="M18.08,23.84v5.52h-.89v-.51a1.42,1.42,0,0,1-.57.42,2,2,0,0,1-.75.14,2.09,2.09,0,0,1-1-.25,1.82,1.82,0,0,1-.71-.72,2.31,2.31,0,0,1,0-2.13,1.73,1.73,0,0,1,.71-.71,2.1,2.1,0,0,1,1-.26,1.81,1.81,0,0,1,.72.14,1.41,1.41,0,0,1,.56.4v-2Zm-1.49,4.62A1,1,0,0,0,17,28a1.42,1.42,0,0,0,0-1.31,1.11,1.11,0,0,0-.42-.44,1.3,1.3,0,0,0-1.21,0,1.11,1.11,0,0,0-.42.44A1.42,1.42,0,0,0,15,28a1,1,0,0,0,.42.43,1.22,1.22,0,0,0,1.21,0Z"/><path class="cls-1" d="M24.21,25.76A1.6,1.6,0,0,1,24.68,27v2.33H23.8v-.48a1,1,0,0,1-.48.39,1.83,1.83,0,0,1-.77.14,1.9,1.9,0,0,1-.78-.15,1.28,1.28,0,0,1-.52-.42,1.12,1.12,0,0,1-.18-.62,1.07,1.07,0,0,1,.4-.86A2,2,0,0,1,22.72,27h1V27a.8.8,0,0,0-.25-.64,1.07,1.07,0,0,0-.74-.22,2.16,2.16,0,0,0-.66.1,1.74,1.74,0,0,0-.54.29l-.37-.68a2.18,2.18,0,0,1,.75-.36,3.17,3.17,0,0,1,.93-.13A1.91,1.91,0,0,1,24.21,25.76Zm-.84,2.81a.81.81,0,0,0,.38-.45v-.46h-1c-.54,0-.8.17-.8.52a.47.47,0,0,0,.2.41,1,1,0,0,0,.56.14A1.17,1.17,0,0,0,23.37,28.57Z"/><path class="cls-1" d="M29.33,25.78a1.74,1.74,0,0,1,.45,1.3v2.28h-.93V27.2a1.12,1.12,0,0,0-.24-.78.91.91,0,0,0-.7-.27,1.1,1.1,0,0,0-.81.31,1.23,1.23,0,0,0-.3.89v2h-.93v-4h.89v.51a1.47,1.47,0,0,1,.58-.42,2.13,2.13,0,0,1,.78-.14A1.68,1.68,0,0,1,29.33,25.78Z"/><path class="cls-1" d="M34.89,23.84v5.52H34v-.51a1.42,1.42,0,0,1-.57.42,2,2,0,0,1-.75.14,2.09,2.09,0,0,1-1-.25,1.82,1.82,0,0,1-.71-.72,2.24,2.24,0,0,1,0-2.13,1.73,1.73,0,0,1,.71-.71,2.1,2.1,0,0,1,1-.26,1.9,1.9,0,0,1,.73.14,1.45,1.45,0,0,1,.55.4v-2ZM33.4,28.46a1,1,0,0,0,.42-.43,1.42,1.42,0,0,0,0-1.31,1.11,1.11,0,0,0-.42-.44,1.3,1.3,0,0,0-1.21,0,1.11,1.11,0,0,0-.42.44,1.42,1.42,0,0,0,0,1.31,1,1,0,0,0,.42.43,1.22,1.22,0,0,0,1.21,0Z"/><path class="cls-1" d="M39.24,29.09a2.56,2.56,0,0,1-1-1,2.77,2.77,0,0,1,0-2.75,2.5,2.5,0,0,1,1-1,3.17,3.17,0,0,1,2.59-.12,2.42,2.42,0,0,1,.89.65l-.62.59a1.81,1.81,0,0,0-1.39-.61,1.9,1.9,0,0,0-1,.23,1.59,1.59,0,0,0-.66.65,2,2,0,0,0,0,1.89,1.53,1.53,0,0,0,.66.65,1.9,1.9,0,0,0,1,.24A1.82,1.82,0,0,0,42.11,28l.62.59a2.31,2.31,0,0,1-.89.65,3,3,0,0,1-1.17.22A2.93,2.93,0,0,1,39.24,29.09Z"/><path class="cls-1" d="M43.57,23.84h.93v5.52h-.93Z"/><path class="cls-1" d="M49.44,27.67H46.33a1.07,1.07,0,0,0,.42.7,1.41,1.41,0,0,0,.86.25,1.43,1.43,0,0,0,1.08-.43l.5.57a1.61,1.61,0,0,1-.68.49,2.43,2.43,0,0,1-.92.16,2.35,2.35,0,0,1-1.15-.26,1.85,1.85,0,0,1-.77-.72,2.09,2.09,0,0,1-.27-1.06,2,2,0,0,1,.26-1,2,2,0,0,1,.73-.73,2.22,2.22,0,0,1,1.06-.26,2.11,2.11,0,0,1,1,.26,1.82,1.82,0,0,1,.71.72,2.21,2.21,0,0,1,.26,1.08C49.46,27.46,49.45,27.55,49.44,27.67Zm-2.75-1.32a1.12,1.12,0,0,0-.37.7h2.25a1.13,1.13,0,0,0-.36-.7,1.17,1.17,0,0,0-.76-.26A1.12,1.12,0,0,0,46.69,26.35Z"/><path class="cls-1" d="M53.1,25.76A1.63,1.63,0,0,1,53.56,27v2.33h-.87v-.48a1.12,1.12,0,0,1-.49.39,1.78,1.78,0,0,1-.76.14,2,2,0,0,1-.79-.15,1.18,1.18,0,0,1-.51-.42,1.12,1.12,0,0,1-.18-.62,1.06,1.06,0,0,1,.39-.86A2,2,0,0,1,51.61,27h1V27a.8.8,0,0,0-.25-.64,1.06,1.06,0,0,0-.74-.22,2.05,2.05,0,0,0-.65.1,1.69,1.69,0,0,0-.55.29l-.37-.68a2.14,2.14,0,0,1,.76-.36,3.1,3.1,0,0,1,.92-.13A2,2,0,0,1,53.1,25.76Zm-.85,2.81a.81.81,0,0,0,.38-.45v-.46h-1c-.53,0-.8.17-.8.52a.5.5,0,0,0,.2.41,1,1,0,0,0,.56.14A1.17,1.17,0,0,0,52.25,28.57Z"/><path class="cls-1" d="M57.05,25.34v.89a.82.82,0,0,0-.21,0,1.11,1.11,0,0,0-.85.31,1.28,1.28,0,0,0-.31.91v1.93h-.93v-4h.89V26A1.55,1.55,0,0,1,57.05,25.34Z"/><path class="cls-2" d="M18.18,0c.38.17.8.17,1.18.31a4.59,4.59,0,0,1,3.32,3.3A4.22,4.22,0,0,1,22,7.26c-.18.26-.14.35.15.46A6.13,6.13,0,0,1,25,9.63a5.45,5.45,0,0,1-2.48,8.55,6.06,6.06,0,0,1-2.11.38H.51A.82.82,0,0,1,0,18.49V0ZM12.35,14.42h1.59c1.64,0,3.28,0,4.92,0a1.59,1.59,0,0,0,1.49-1.19,1.74,1.74,0,0,0-.57-1.83A2,2,0,0,0,18.5,11L8.14,11c-.44,0-.49-.07-.29-.45.43-.83.89-1.66,1.3-2.51a1.66,1.66,0,0,1,1.72-1c1.71,0,3.43,0,5.14,0A1.4,1.4,0,0,0,17.5,5.61,1.39,1.39,0,0,0,16,4.22H6.92A1.16,1.16,0,0,0,5.63,5.47c0,2.84,0,5.68,0,8.51,0,.35.11.45.45.44Z"/><path class="cls-2" d="M152,0c0,.15,0,.3,0,.45V17.07c0,.83-.28,1.28-.89,1.44a1.68,1.68,0,0,1-.45,0H144a.81.81,0,0,1-.79-.45q-3.84-6.52-7.7-13a3,3,0,0,0-.48-.62V18c0,.56,0,.57-.57.57h-4.65c-.36,0-.46-.12-.45-.46,0-5.58,0-11.15,0-16.73A1.41,1.41,0,0,1,130.21,0h7.65a.42.42,0,0,0,0,.1q3.76,6.38,7.54,12.73c.26.44.53.87.8,1.31.1-.08.07-.15.07-.21q0-6.73,0-13.48c0-.15,0-.3,0-.45Z"/><path class="cls-2" d="M43,0c1.45,2.64,2.89,5.29,4.35,7.93,1.82,3.33,3.66,6.66,5.49,10,.06.11.11.22.17.34s0,.28-.17.3H47.3a.59.59,0,0,1-.59-.36c-.31-.62-.65-1.23-1-1.84a1.45,1.45,0,0,0-1.43-.85c-2.45,0-4.89,0-7.34,0h-.31c-.22,0-.33-.14-.22-.36.59-1.11,1.1-2.26,1.77-3.33a1.13,1.13,0,0,1,1.05-.54H43l-3.68-7a17.92,17.92,0,0,0-1,1.76q-3.12,6-6.24,12.05a.68.68,0,0,1-.71.42h-5.3c-.52,0-.55-.06-.3-.52L33.48,3.91c.46-.84.9-1.69,1.36-2.52A4,4,0,0,1,35.91,0Z"/><path class="cls-2" d="M117.41,0c.91,1.52,1.73,3.09,2.58,4.64q3.67,6.66,7.33,13.32l.12.23c.14.26.06.37-.23.37h-5.45a.62.62,0,0,1-.63-.38c-.33-.64-.67-1.26-1-1.9a1.33,1.33,0,0,0-1.32-.76h-7.42a1.93,1.93,0,0,1-.34,0c-.17,0-.29-.1-.18-.31.58-1.12,1.1-2.28,1.77-3.36a1.17,1.17,0,0,1,1.09-.55c1.21,0,2.42,0,3.73,0l-3.7-7L112,7.7q-2.7,5.21-5.38,10.41a.71.71,0,0,1-.73.45H100.6c-.54,0-.57,0-.32-.52L107,5.6c.87-1.6,1.67-3.24,2.61-4.8a1.81,1.81,0,0,1,.82-.8Z"/><path class="cls-2" d="M97.49,0c.05.22-.13.31-.25.43l-9,8.17-.48.46c1,.83,1.91,1.64,2.87,2.44l7.73,6.56c.13.11.37.2.3.39s-.31.1-.48.1H91.89a1.36,1.36,0,0,1-1-.35l-8.56-7.4c-.15-.13-.31-.25-.48-.38a2.2,2.2,0,0,0-.06.71V18c0,.52,0,.53-.53.53H76.72c-.56,0-.56,0-.56-.58,0-5.84,0-11.68,0-17.53,0-.15,0-.3,0-.45h5.68c0,.14,0,.28,0,.41V8.25c.21-.19.34-.3.46-.42l5.25-5L90.44,0Z"/><path class="cls-2" d="M60.6,0q0,7,0,14c0,.38.12.46.47.45H73.74c.68,0,.69,0,.37.63-.43.83-.89,1.66-1.3,2.51a1.58,1.58,0,0,1-1.62,1c-5.21,0-10.42,0-15.63,0-.61,0-.63,0-.63-.65V.45c0-.15,0-.3,0-.45Z"/><path class="cls-3" d="M202.55,0a.91.91,0,0,1-.09.36c-.51,1-1,1.94-1.52,2.92a1.53,1.53,0,0,1-1.53.87c-3.94,0-7.88,0-11.82,0a1.31,1.31,0,0,0-1.43,1.45,13.83,13.83,0,0,1,0,1.44c0,.21.08.29.29.29h12.15c.72,0,.74,0,.41.67s-.84,1.55-1.23,2.34a1.57,1.57,0,0,1-1.57.94c-2.89,0-5.78,0-8.67,0a1.32,1.32,0,0,0-1.39,1.38c0,1.78,0,3.56,0,5.34,0,.52,0,.57-.56.57H181c-.49,0-.5,0-.5-.52V.45c0-.15,0-.3,0-.45Z"/><path class="cls-3" d="M210.8,0V6.09c0,2.52,0,5,0,7.54,0,.93-.06.78.82.8h12.53c.38,0,.44.09.26.42-.49,1-1,1.92-1.5,2.89a1.38,1.38,0,0,1-1.37.8c-5.26,0-10.52,0-15.78,0-.57,0-.59,0-.59-.61V.48a1,1,0,0,0,0-.48Z"/><path class="cls-3" d="M178.76,0a.93.93,0,0,1-.12.54c-.45.85-.91,1.69-1.33,2.55a1.74,1.74,0,0,1-1.77,1.07c-7,0-14,0-21,0h-.26c-.24,0-.34-.13-.22-.35.57-1.09,1.15-2.18,1.72-3.28.13-.24.41-.31.57-.51Z"/><path class="cls-3" d="M163.56,12.55c0-1.82,0-3.65,0-5.48,0-.36.1-.48.47-.48,1.27,0,2.55,0,3.82,0A1.19,1.19,0,0,1,169.19,8c0,3.36,0,6.71,0,10.07,0,.45-.07.52-.52.52H164c-.35,0-.46-.12-.46-.46C163.56,16.24,163.56,14.4,163.56,12.55Z"/><path class="cls-3" d="M196.6,14.4h5.68c.43,0,.47,0,.28.43L201,17.75a1.42,1.42,0,0,1-1.41.8c-3.67,0-7.34,0-11,0-.49,0-.54-.08-.31-.52.47-.92.95-1.83,1.41-2.76a1.39,1.39,0,0,1,1.4-.86c1.83,0,3.66,0,5.49,0Z"/><circle class="cls-2" cx="60.27" cy="27.17" r="1.22"/></g></g></svg>